<svg xmlns="http://www.w3.org/2000/svg" xmlns:xlink="http://www.w3.org/1999/xlink" version="1.1" width="1000" height="1000" viewBox="0 0 1000 1000" xml:space="preserve">
<desc>Created with Fabric.js 3.5.0</desc>
<defs>
</defs>
<rect x="0" y="0" width="100%" height="100%" fill="rgba(255,255,255,0)"/>
<g transform="matrix(25.844 0 0 25.844 420.6331 407.2911)" id="447589">
<path style="stroke: none; stroke-width: 1; stroke-dasharray: none; stroke-linecap: butt; stroke-dashoffset: 0; stroke-linejoin: miter; stroke-miterlimit: 4; is-custom-font: none; font-file-url: none; fill: rgb(57,112,228); fill-rule: nonzero; opacity: 1;" vector-effect="non-scaling-stroke" transform=" translate(-12, -12.1153)" d="M 11.1142 1.43752 C 11.6726 1.16175 12.3274 1.16175 12.8858 1.43752 L 19.9628 4.9333 C 20.5056 5.20144 20.8978 5.70105 21.0293 6.29205 L 22.7955 14.2294 C 22.925 14.8114 22.7882 15.4208 22.4222 15.8914 L 17.496 22.2276 C 17.1171 22.7149 16.5344 23 15.9171 23 H 8.08294 C 7.46563 23 6.88291 22.7149 6.504 22.2276 L 1.57778 15.8914 C 1.21185 15.4208 1.07497 14.8114 1.20446 14.2294 L 2.9707 6.29205 C 3.10221 5.70105 3.49436 5.20144 4.0372 4.9333 L 11.1142 1.43752 Z" stroke-linecap="round"/>
</g>
<g transform="matrix(7.8945 0 0 7.8945 339.5359 311.8121)" id="376409">
<path style="stroke: none; stroke-width: 1; stroke-dasharray: none; stroke-linecap: butt; stroke-dashoffset: 0; stroke-linejoin: miter; stroke-miterlimit: 4; is-custom-font: none; font-file-url: none; fill: rgb(255,255,255); fill-rule: nonzero; opacity: 1;" vector-effect="non-scaling-stroke" transform=" translate(-11.9993, -11.9995)" d="M 9.362 9.158 c 0 0 -3.16 0.35 -5.268 0.584 c -0.19 0.023 -0.358 0.15 -0.421 0.343 s 0 0.394 0.14 0.521 c 1.566 1.429 3.919 3.569 3.919 3.569 c -0.002 0 -0.646 3.113 -1.074 5.19 c -0.036 0.188 0.032 0.387 0.196 0.506 c 0.163 0.119 0.373 0.121 0.538 0.028 c 1.844 -1.048 4.606 -2.624 4.606 -2.624 s 2.763 1.576 4.604 2.625 c 0.168 0.092 0.378 0.09 0.541 -0.029 c 0.164 -0.119 0.232 -0.318 0.195 -0.505 c -0.428 -2.078 -1.071 -5.191 -1.071 -5.191 s 2.353 -2.14 3.919 -3.566 c 0.14 -0.131 0.202 -0.332 0.14 -0.524 s -0.23 -0.319 -0.42 -0.341 c -2.108 -0.236 -5.269 -0.586 -5.269 -0.586 s -1.31 -2.898 -2.183 -4.83 c -0.082 -0.173 -0.254 -0.294 -0.456 -0.294 s -0.375 0.122 -0.453 0.294 C 10.671 6.26 9.362 9.158 9.362 9.158 z" stroke-linecap="round"/>
</g>
<g transform="matrix(6.9872 0 0 6.9872 518.5966 318.7987)" id="183116">
<rect style="stroke: none; stroke-width: 1; stroke-dasharray: none; stroke-linecap: butt; stroke-dashoffset: 0; stroke-linejoin: miter; stroke-miterlimit: 4; is-custom-font: none; font-file-url: none; fill: rgb(255,255,255); fill-rule: nonzero; opacity: 1;" vector-effect="non-scaling-stroke" x="-8" y="-8" rx="0" ry="0" width="16" height="16"/>
</g>
<g transform="matrix(8.1322 0 0 8.1322 340.4033 494.0516)" id="363444">
<circle style="stroke: none; stroke-width: 1; stroke-dasharray: none; stroke-linecap: butt; stroke-dashoffset: 0; stroke-linejoin: miter; stroke-miterlimit: 4; is-custom-font: none; font-file-url: none; fill: rgb(255,255,255); fill-rule: nonzero; opacity: 1;" vector-effect="non-scaling-stroke" cx="0" cy="0" r="8"/>
</g>
<g transform="matrix(0.2748 0 0 0.2748 512.9172 485.772)" id="914298">
<path style="stroke: none; stroke-width: 1; stroke-dasharray: none; stroke-linecap: butt; stroke-dashoffset: 0; stroke-linejoin: miter; stroke-miterlimit: 4; is-custom-font: none; font-file-url: none; fill: rgb(255,255,255); fill-rule: nonzero; opacity: 1;" vector-effect="non-scaling-stroke" transform=" translate(-256, -255.999)" d="M 464 464 H 48 a 16 16 0 0 1 -14.07 -23.62 l 208 -384 a 16 16 0 0 1 28.14 0 l 208 384 A 16 16 0 0 1 464 464 Z" stroke-linecap="round"/>
</g>
<g transform="matrix(1 0 0 1 439.6892 755.9771)" style="" id="327730">
		
<path xml:space="preserve" font-family="ABeeZee" font-size="80" font-style="normal" font-weight="normal" style="stroke: none; stroke-width: 1; stroke-dasharray: none; stroke-linecap: butt; stroke-dashoffset: 0; stroke-linejoin: miter; stroke-miterlimit: 4; is-custom-font: none; font-file-url: none; fill: rgb(66,159,255); fill-rule: nonzero; opacity: 1; white-space: pre;" d="M-235.84 22.73L-242.96 26.09L-249.92 10.89Q-252.56 5.21-256.56 2.81Q-260.56 0.41-266.80 0.41L-266.80 0.41L-268 0.41L-268 25.13L-275.60 25.13L-275.60-30.71Q-271.28-31.11-267.48-31.31Q-263.68-31.51-259.20-31.51L-259.20-31.51Q-254.08-31.51-250.24-30.43Q-246.40-29.35-243.84-27.35Q-241.28-25.35-239.96-22.63Q-238.64-19.91-238.64-16.63L-238.64-16.63Q-238.64-10.79-242.12-7.23Q-245.60-3.67-252.16-1.91L-252.16-1.91Q-250.56-1.19-249.20-0.27Q-247.84 0.65-246.64 1.97Q-245.44 3.29-244.28 5.13Q-243.12 6.97-241.92 9.61L-241.92 9.61L-235.84 22.73ZM-259.20-25.11L-259.20-25.11Q-261.92-25.11-264.08-25.03Q-266.24-24.95-268-24.79L-268-24.79L-268-5.99L-259.20-5.99Q-253.44-5.99-249.84-8.55Q-246.24-11.11-246.24-15.91L-246.24-15.91Q-246.24-19.91-249.60-22.51Q-252.96-25.11-259.20-25.11ZM-193.36 7.29L-222.48 7.29Q-221.76 13.13-218.40 16.41Q-215.04 19.69-209.52 19.69L-209.52 19.69Q-205.92 19.69-203.04 18.93Q-200.16 18.17-197.52 16.97L-197.52 16.97L-195.84 23.13Q-198.72 24.49-202.32 25.29Q-205.92 26.09-210.40 26.09L-210.40 26.09Q-214.88 26.09-218.48 24.61Q-222.08 23.13-224.60 20.37Q-227.12 17.61-228.48 13.57Q-229.84 9.53-229.84 4.33L-229.84 4.33Q-229.84-0.31-228.48-4.31Q-227.12-8.31-224.64-11.23Q-222.16-14.15-218.72-15.79Q-215.28-17.43-211.04-17.43L-211.04-17.43Q-206.56-17.43-203.20-15.91Q-199.84-14.39-197.60-11.75Q-195.36-9.11-194.24-5.59Q-193.12-2.07-193.12 1.85L-193.12 1.85Q-193.12 4.65-193.36 7.29L-193.36 7.29ZM-211.20-11.19L-211.20-11.19Q-215.92-11.19-218.92-7.99Q-221.92-4.79-222.56 1.45L-222.56 1.45L-199.76 1.45Q-199.76-4.63-202.80-7.91Q-205.84-11.19-211.20-11.19ZM-167.76 26.09L-167.76 26.09Q-171.60 26.09-175 24.57Q-178.40 23.05-180.92 20.25Q-183.44 17.45-184.88 13.49Q-186.32 9.53-186.32 4.57L-186.32 4.57Q-186.32-0.15-184.84-4.19Q-183.36-8.23-180.84-11.15Q-178.32-14.07-174.96-15.75Q-171.60-17.43-167.84-17.43L-167.84-17.43Q-163.68-17.43-160.68-15.75Q-157.68-14.07-156-12.31L-156-12.31L-156-34.07L-148.80-34.07L-148.80 15.05Q-148.80 18.09-147.32 19.01Q-145.84 19.93-144.08 19.93L-144.08 19.93L-145.60 25.53Q-153.20 25.53-154.88 19.45L-154.88 19.45Q-156.72 22.01-159.84 24.05Q-162.96 26.09-167.76 26.09ZM-166.16 19.69L-166.16 19.69Q-163.20 19.69-160.52 18.29Q-157.84 16.89-156 14.65L-156 14.65L-156-5.99Q-157.52-7.91-160.20-9.55Q-162.88-11.19-166.24-11.19L-166.24-11.19Q-169.12-11.19-171.48-9.99Q-173.84-8.79-175.52-6.71Q-177.20-4.63-178.08-1.79Q-178.96 1.05-178.96 4.33L-178.96 4.33Q-178.96 7.69-178 10.49Q-177.04 13.29-175.32 15.33Q-173.60 17.37-171.24 18.53Q-168.88 19.69-166.16 19.69ZM-127.28-16.47L-127.28 25.13L-134.48 25.13L-134.48-16.47L-127.28-16.47ZM-130.88-23.59L-130.88-23.59Q-132.96-23.59-134.44-25.07Q-135.92-26.55-135.92-28.63L-135.92-28.63Q-135.92-30.95-134.56-32.31Q-133.20-33.67-130.88-33.67L-130.88-33.67Q-128.80-33.67-127.32-32.19Q-125.84-30.71-125.84-28.63L-125.84-28.63Q-125.84-26.31-127.20-24.95Q-128.56-23.59-130.88-23.59ZM-118.08 21.77L-115.04 15.77Q-112.96 17.61-109.80 18.73Q-106.64 19.85-103.04 19.85L-103.04 19.85Q-98.56 19.85-96.28 18.37Q-94 16.89-94 14.57L-94 14.57Q-94 13.37-94.44 12.33Q-94.88 11.29-96.04 10.33Q-97.20 9.37-99.20 8.45Q-101.20 7.53-104.40 6.41L-104.40 6.41Q-110.32 4.41-113.20 1.65Q-116.08-1.11-116.08-5.99L-116.08-5.99Q-116.08-8.39-115-10.47Q-113.92-12.55-111.88-14.11Q-109.84-15.67-106.92-16.55Q-104-17.43-100.24-17.43L-100.24-17.43Q-96.16-17.43-93.08-16.59Q-90-15.75-87.52-14.47L-87.52-14.47L-89.52-8.55Q-91.68-9.83-94.44-10.63Q-97.20-11.43-100.56-11.43L-100.56-11.43Q-104.72-11.43-106.88-9.75Q-109.04-8.07-109.04-6.07L-109.04-6.07Q-109.04-5.11-108.68-4.31Q-108.32-3.51-107.36-2.79Q-106.40-2.07-104.80-1.35Q-103.20-0.63-100.80 0.17L-100.80 0.17Q-96.88 1.53-94.16 2.93Q-91.44 4.33-89.76 6.01Q-88.08 7.69-87.36 9.65Q-86.64 11.61-86.64 14.01L-86.64 14.01Q-86.64 16.81-87.84 19.05Q-89.04 21.29-91.20 22.85Q-93.36 24.41-96.44 25.25Q-99.52 26.09-103.28 26.09L-103.28 26.09Q-108.08 26.09-111.84 24.89Q-115.60 23.69-118.08 21.77L-118.08 21.77ZM-55.44-2.95L-55.44-2.95Q-55.44-9.11-53.64-14.39Q-51.84-19.67-48.44-23.55Q-45.04-27.43-40.16-29.63Q-35.28-31.83-29.04-31.83L-29.04-31.83Q-22.88-31.83-17.96-29.55Q-13.04-27.27-9.64-23.35Q-6.24-19.43-4.40-14.19Q-2.56-8.95-2.56-2.95L-2.56-2.95Q-2.56 3.05-4.36 8.33Q-6.16 13.61-9.60 17.57Q-13.04 21.53-17.92 23.81Q-22.80 26.09-29.04 26.09L-29.04 26.09Q-35.28 26.09-40.16 23.81Q-45.04 21.53-48.44 17.57Q-51.84 13.61-53.64 8.33Q-55.44 3.05-55.44-2.95ZM-47.68-2.95L-47.68-2.95Q-47.68 1.37-46.44 5.45Q-45.20 9.53-42.80 12.65Q-40.40 15.77-36.92 17.65Q-33.44 19.53-29.04 19.53L-29.04 19.53Q-24.40 19.53-20.92 17.81Q-17.44 16.09-15.08 13.09Q-12.72 10.09-11.52 5.97Q-10.32 1.85-10.32-2.95L-10.32-2.95Q-10.32-7.27-11.60-11.27Q-12.88-15.27-15.28-18.39Q-17.68-21.51-21.16-23.39Q-24.64-25.27-29.04-25.27L-29.04-25.27Q-33.44-25.27-36.92-23.55Q-40.40-21.83-42.80-18.83Q-45.20-15.83-46.44-11.75Q-47.68-7.67-47.68-2.95ZM4.64-10.87L6.16-16.47Q13.52-16.47 15.36-10.63L15.36-10.63Q15.92-11.51 17.08-12.71Q18.24-13.91 19.92-14.95Q21.60-15.99 23.76-16.71Q25.92-17.43 28.56-17.43L28.56-17.43Q32.16-17.43 35.48-15.99Q38.80-14.55 41.32-11.83Q43.84-9.11 45.36-5.11Q46.88-1.11 46.88 3.93L46.88 3.93Q46.88 8.89 45.40 12.97Q43.92 17.05 41.40 19.97Q38.88 22.89 35.60 24.49Q32.32 26.09 28.72 26.09L28.72 26.09Q24.96 26.09 21.80 24.61Q18.64 23.13 16.56 21.21L16.56 21.21L16.56 42.73L9.36 42.73L9.36-5.83Q9.36-8.55 8.04-9.71Q6.72-10.87 4.64-10.87L4.64-10.87ZM39.52 4.17L39.52 4.17Q39.52 0.57 38.52-2.27Q37.52-5.11 35.80-7.11Q34.08-9.11 31.80-10.15Q29.52-11.19 26.96-11.19L26.96-11.19Q23.52-11.19 20.76-9.47Q18.00-7.75 16.56-5.75L16.56-5.75L16.56 14.73Q18.64 16.89 21.32 18.29Q24.00 19.69 27.28 19.69L27.28 19.69Q30.00 19.69 32.24 18.57Q34.48 17.45 36.12 15.41Q37.76 13.37 38.64 10.53Q39.52 7.69 39.52 4.17ZM90.56 7.29L61.44 7.29Q62.16 13.13 65.52 16.41Q68.88 19.69 74.40 19.69L74.40 19.69Q78 19.69 80.88 18.93Q83.76 18.17 86.40 16.97L86.40 16.97L88.08 23.13Q85.20 24.49 81.60 25.29Q78 26.09 73.52 26.09L73.52 26.09Q69.04 26.09 65.44 24.61Q61.84 23.13 59.32 20.37Q56.80 17.61 55.44 13.57Q54.08 9.53 54.08 4.33L54.08 4.33Q54.08-0.31 55.44-4.31Q56.80-8.31 59.28-11.23Q61.76-14.15 65.20-15.79Q68.64-17.43 72.88-17.43L72.88-17.43Q77.36-17.43 80.72-15.91Q84.08-14.39 86.32-11.75Q88.56-9.11 89.68-5.59Q90.80-2.07 90.80 1.85L90.80 1.85Q90.80 4.65 90.56 7.29L90.56 7.29ZM72.72-11.19L72.72-11.19Q68-11.19 65-7.99Q62-4.79 61.36 1.45L61.36 1.45L84.16 1.45Q84.16-4.63 81.12-7.91Q78.08-11.19 72.72-11.19ZM125.12-16.95L122.96-9.51Q121.44-10.15 119.36-10.15L119.36-10.15Q117.12-10.15 115-9.19Q112.88-8.23 111.24-6.31Q109.60-4.39 108.60-1.39Q107.60 1.61 107.60 5.69L107.60 5.69L107.60 25.13L100.40 25.13L100.40-16.47L107.36-16.47L107.36-7.43Q108.08-9.35 109.28-11.19Q110.48-13.03 112.12-14.39Q113.76-15.75 115.92-16.59Q118.08-17.43 120.72-17.43L120.72-17.43Q121.92-17.43 123.08-17.31Q124.24-17.19 125.12-16.95L125.12-16.95ZM127.12 4.57L127.12 4.57Q127.12-0.07 128.56-4.11Q130-8.15 132.60-11.11Q135.20-14.07 138.84-15.75Q142.48-17.43 146.80-17.43L146.80-17.43Q150.40-17.43 153.32-16.19Q156.24-14.95 158.40-13.11L158.40-13.11L158.40-16.47L164.96-16.47L164.96 15.05Q164.96 18.09 166.44 19.01Q167.92 19.93 169.68 19.93L169.68 19.93L168.16 25.53Q160.48 25.53 158.88 19.29L158.88 19.29Q157.92 20.57 156.68 21.81Q155.44 23.05 153.84 24.01Q152.24 24.97 150.24 25.53Q148.24 26.09 145.84 26.09L145.84 26.09Q141.92 26.09 138.52 24.57Q135.12 23.05 132.60 20.25Q130.08 17.45 128.60 13.49Q127.12 9.53 127.12 4.57ZM147.44 19.69L147.44 19.69Q150.48 19.69 153.20 18.25Q155.92 16.81 157.76 14.49L157.76 14.49L157.76-7.83Q155.60-9.35 153-10.27Q150.40-11.19 147.52-11.19L147.52-11.19Q144.64-11.19 142.24-10.07Q139.84-8.95 138.12-6.91Q136.40-4.87 135.44-1.99Q134.48 0.89 134.48 4.33L134.48 4.33Q134.48 7.69 135.44 10.53Q136.40 13.37 138.16 15.41Q139.92 17.45 142.28 18.57Q144.64 19.69 147.44 19.69ZM181.04-14.95L182.56-28.07L188.08-28.07L188.08-14.95L199.60-14.95L199.60-8.71L188.08-8.71L188.08 11.37Q188.08 13.69 188.60 15.29Q189.12 16.89 190 17.85Q190.88 18.81 192.12 19.25Q193.36 19.69 194.72 19.69L194.72 19.69Q196.72 19.69 198.48 19.05Q200.24 18.41 201.84 17.53L201.84 17.53L203.84 23.29Q202.24 24.25 199.52 25.17Q196.80 26.09 193.84 26.09L193.84 26.09Q187.84 26.09 184.36 22.17Q180.88 18.25 180.88 10.81L180.88 10.81L180.88-8.71L173.68-8.71L173.68-14.95L181.04-14.95ZM240.32 4.33L240.32 4.33Q240.32 1.21 239.32-1.59Q238.32-4.39 236.52-6.47Q234.72-8.55 232.28-9.79Q229.84-11.03 226.96-11.03L226.96-11.03Q220.64-11.03 217.12-6.87Q213.60-2.71 213.60 4.17L213.60 4.17Q213.60 7.29 214.60 10.13Q215.60 12.97 217.40 15.09Q219.20 17.21 221.64 18.45Q224.08 19.69 226.96 19.69L226.96 19.69Q230.08 19.69 232.56 18.57Q235.04 17.45 236.76 15.41Q238.48 13.37 239.40 10.57Q240.32 7.77 240.32 4.33ZM206.24 4.33L206.24 4.33Q206.24-0.71 207.84-4.75Q209.44-8.79 212.20-11.59Q214.96-14.39 218.76-15.91Q222.56-17.43 226.96-17.43L226.96-17.43Q231.28-17.43 235.08-15.91Q238.88-14.39 241.68-11.59Q244.48-8.79 246.08-4.79Q247.68-0.79 247.68 4.17L247.68 4.17Q247.68 9.13 246.12 13.17Q244.56 17.21 241.76 20.09Q238.96 22.97 235.16 24.53Q231.36 26.09 226.96 26.09L226.96 26.09Q222.48 26.09 218.68 24.49Q214.88 22.89 212.12 20.01Q209.36 17.13 207.80 13.13Q206.24 9.13 206.24 4.33ZM282-16.95L279.84-9.51Q278.32-10.15 276.24-10.15L276.24-10.15Q274-10.15 271.88-9.19Q269.76-8.23 268.12-6.31Q266.48-4.39 265.48-1.39Q264.48 1.61 264.48 5.69L264.48 5.69L264.48 25.13L257.28 25.13L257.28-16.47L264.24-16.47L264.24-7.43Q264.96-9.35 266.16-11.19Q267.36-13.03 269-14.39Q270.64-15.75 272.80-16.59Q274.96-17.43 277.60-17.43L277.60-17.43Q278.80-17.43 279.96-17.31Q281.12-17.19 282-16.95L282-16.95Z"/></g>
<g transform="matrix(1 0 0 1 601.3637 846.7628)" style="" id="884510">
		
<path xml:space="preserve" font-family="ABeeZee" font-size="48" font-style="normal" font-weight="normal" style="stroke: none; stroke-width: 1; stroke-dasharray: none; stroke-linecap: butt; stroke-dashoffset: 0; stroke-linejoin: miter; stroke-miterlimit: 4; is-custom-font: none; font-file-url: none; fill: rgb(66,159,255); fill-rule: nonzero; opacity: 1; white-space: pre;" d="M-232.20 14.98L-232.20-18.43Q-230.52-18.62-228.05-18.76Q-225.58-18.91-222.31-18.91L-222.31-18.91Q-216.12-18.91-212.83-16.60Q-209.54-14.30-209.54-10.27L-209.54-10.27Q-209.54-7.58-210.94-5.75Q-212.33-3.93-215.06-2.73L-215.06-2.73Q-211.80-1.58-210.12 0.44Q-208.44 2.45-208.44 5.48L-208.44 5.48Q-208.44 10.09-212.02 12.77Q-215.59 15.46-222.50 15.46L-222.50 15.46Q-225.43 15.46-228.05 15.34Q-230.66 15.22-232.20 14.98L-232.20 14.98ZM-222.17 11.67L-222.17 11.67Q-217.85 11.67-215.47 10.13Q-213.10 8.60-213.10 5.67L-213.10 5.67Q-213.10 2.79-215.45 1.16Q-217.80-0.47-222.17-0.47L-222.17-0.47L-227.64-0.47L-227.64 11.38Q-225.14 11.67-222.17 11.67ZM-227.64-4.03L-222.36-4.03Q-218.57-4.03-216.34-5.59Q-214.10-7.15-214.10-9.69L-214.10-9.69Q-214.10-12.43-216.31-13.82Q-218.52-15.21-222.36-15.21L-222.36-15.21Q-223.94-15.21-225.24-15.14Q-226.54-15.07-227.64-14.97L-227.64-14.97L-227.64-4.03ZM-201.82 26.21L-201.82 26.21Q-203.26 26.21-204.34 25.93Q-205.42 25.64-206.04 25.25L-206.04 25.25L-205.08 21.65Q-204.50 21.99-203.66 22.23Q-202.82 22.47-201.72 22.47L-201.72 22.47Q-200.71 22.47-199.82 22.18Q-198.94 21.89-198.12 21.17Q-197.30 20.45-196.56 19.21Q-195.82 17.96-195.10 16.09L-195.10 16.09L-193.99 13.21L-196.30 13.21L-206.04-8.73L-202.20-10.46L-192.89 10.33L-185.64-10.27L-181.66-8.73L-190.82 16.33Q-191.88 19.21-193.06 21.10Q-194.23 23.00-195.58 24.15Q-196.92 25.30-198.48 25.76Q-200.04 26.21-201.82 26.21ZM-164.38-1.77L-164.38-1.77Q-164.38-5.47-163.30-8.63Q-162.22-11.80-160.18-14.13Q-158.14-16.46-155.21-17.78Q-152.28-19.10-148.54-19.10L-148.54-19.10Q-144.84-19.10-141.89-17.73Q-138.94-16.36-136.90-14.01Q-134.86-11.66-133.75-8.51Q-132.65-5.37-132.65-1.77L-132.65-1.77Q-132.65 1.83-133.73 5.00Q-134.81 8.17-136.87 10.54Q-138.94 12.92-141.86 14.29Q-144.79 15.65-148.54 15.65L-148.54 15.65Q-152.28 15.65-155.21 14.29Q-158.14 12.92-160.18 10.54Q-162.22 8.17-163.30 5.00Q-164.38 1.83-164.38-1.77ZM-159.72-1.77L-159.72-1.77Q-159.72 0.82-158.98 3.27Q-158.23 5.72-156.79 7.59Q-155.35 9.46-153.26 10.59Q-151.18 11.72-148.54 11.72L-148.54 11.72Q-145.75 11.72-143.66 10.69Q-141.58 9.65-140.16 7.85Q-138.74 6.05-138.02 3.58Q-137.30 1.11-137.30-1.77L-137.30-1.77Q-137.30-4.36-138.07-6.76Q-138.84-9.16-140.28-11.03Q-141.72-12.91-143.81-14.03Q-145.90-15.16-148.54-15.16L-148.54-15.16Q-151.18-15.16-153.26-14.13Q-155.35-13.10-156.79-11.30Q-158.23-9.50-158.98-7.05Q-159.72-4.60-159.72-1.77ZM-128.33-6.52L-127.42-9.88Q-123.00-9.88-121.90-6.38L-121.90-6.38Q-121.56-6.91-120.86-7.63Q-120.17-8.35-119.16-8.97Q-118.15-9.59-116.86-10.03Q-115.56-10.46-113.98-10.46L-113.98-10.46Q-111.82-10.46-109.82-9.59Q-107.83-8.73-106.32-7.10Q-104.81-5.47-103.90-3.07Q-102.98-0.67-102.98 2.36L-102.98 2.36Q-102.98 5.33-103.87 7.78Q-104.76 10.23-106.27 11.98Q-107.78 13.73-109.75 14.69Q-111.72 15.65-113.88 15.65L-113.88 15.65Q-116.14 15.65-118.03 14.77Q-119.93 13.88-121.18 12.73L-121.18 12.73L-121.18 25.64L-125.50 25.64L-125.50-3.50Q-125.50-5.13-126.29-5.83Q-127.08-6.52-128.33-6.52L-128.33-6.52ZM-107.40 2.50L-107.40 2.50Q-107.40 0.34-108.00-1.36Q-108.60-3.07-109.63-4.27Q-110.66-5.47-112.03-6.09Q-113.40-6.71-114.94-6.71L-114.94-6.71Q-117.00-6.71-118.66-5.68Q-120.31-4.65-121.18-3.45L-121.18-3.45L-121.18 8.84Q-119.93 10.13-118.32 10.97Q-116.71 11.81-114.74 11.81L-114.74 11.81Q-113.11 11.81-111.77 11.14Q-110.42 10.47-109.44 9.25Q-108.46 8.02-107.93 6.32Q-107.40 4.61-107.40 2.50ZM-99.14 13.06L-97.32 9.46Q-96.07 10.57-94.18 11.24Q-92.28 11.91-90.12 11.91L-90.12 11.91Q-87.43 11.91-86.06 11.02Q-84.70 10.13-84.70 8.74L-84.70 8.74Q-84.70 8.02-84.96 7.40Q-85.22 6.77-85.92 6.20Q-86.62 5.62-87.82 5.07Q-89.02 4.52-90.94 3.85L-90.94 3.85Q-94.49 2.65-96.22 0.99Q-97.94-0.67-97.94-3.59L-97.94-3.59Q-97.94-5.03-97.30-6.28Q-96.65-7.53-95.42-8.47Q-94.20-9.40-92.45-9.93Q-90.70-10.46-88.44-10.46L-88.44-10.46Q-85.99-10.46-84.14-9.95Q-82.30-9.45-80.81-8.68L-80.81-8.68L-82.01-5.13Q-83.30-5.90-84.96-6.38Q-86.62-6.86-88.63-6.86L-88.63-6.86Q-91.13-6.86-92.42-5.85Q-93.72-4.84-93.72-3.64L-93.72-3.64Q-93.72-3.07-93.50-2.59Q-93.29-2.11-92.71-1.67Q-92.14-1.24-91.18-0.81Q-90.22-0.38-88.78 0.10L-88.78 0.10Q-86.42 0.92-84.79 1.76Q-83.16 2.60-82.15 3.61Q-81.14 4.61-80.71 5.79Q-80.28 6.97-80.28 8.41L-80.28 8.41Q-80.28 10.09-81.00 11.43Q-81.72 12.77-83.02 13.71Q-84.31 14.65-86.16 15.15Q-88.01 15.65-90.26 15.65L-90.26 15.65Q-93.14 15.65-95.40 14.93Q-97.66 14.21-99.14 13.06L-99.14 13.06ZM-73.46-8.97L-72.55-16.84L-69.24-16.84L-69.24-8.97L-62.33-8.97L-62.33-5.23L-69.24-5.23L-69.24 6.82Q-69.24 8.21-68.93 9.17Q-68.62 10.13-68.09 10.71Q-67.56 11.29-66.82 11.55Q-66.07 11.81-65.26 11.81L-65.26 11.81Q-64.06 11.81-63.00 11.43Q-61.94 11.05-60.98 10.52L-60.98 10.52L-59.78 13.97Q-60.74 14.55-62.38 15.10Q-64.01 15.65-65.78 15.65L-65.78 15.65Q-69.38 15.65-71.47 13.30Q-73.56 10.95-73.56 6.49L-73.56 6.49L-73.56-5.23L-77.88-5.23L-77.88-8.97L-73.46-8.97ZM-40.63-10.17L-41.93-5.71Q-42.84-6.09-44.09-6.09L-44.09-6.09Q-45.43-6.09-46.70-5.51Q-47.98-4.94-48.96-3.79Q-49.94-2.63-50.54-0.83Q-51.14 0.97-51.14 3.41L-51.14 3.41L-51.14 15.08L-55.46 15.08L-55.46-9.88L-51.29-9.88L-51.29-4.46Q-50.86-5.61-50.14-6.71Q-49.42-7.82-48.43-8.63Q-47.45-9.45-46.15-9.95Q-44.86-10.46-43.27-10.46L-43.27-10.46Q-42.55-10.46-41.86-10.39Q-41.16-10.31-40.63-10.17L-40.63-10.17ZM-17.54 4.37L-35.02 4.37Q-34.58 7.88-32.57 9.85Q-30.55 11.81-27.24 11.81L-27.24 11.81Q-25.08 11.81-23.35 11.36Q-21.62 10.90-20.04 10.18L-20.04 10.18L-19.03 13.88Q-20.76 14.69-22.92 15.17Q-25.08 15.65-27.77 15.65L-27.77 15.65Q-30.46 15.65-32.62 14.77Q-34.78 13.88-36.29 12.22Q-37.80 10.57-38.62 8.14Q-39.43 5.72-39.43 2.60L-39.43 2.60Q-39.43-0.19-38.62-2.59Q-37.80-4.99-36.31-6.74Q-34.82-8.49-32.76-9.47Q-30.70-10.46-28.15-10.46L-28.15-10.46Q-25.46-10.46-23.45-9.55Q-21.43-8.63-20.09-7.05Q-18.74-5.47-18.07-3.35Q-17.40-1.24-17.40 1.11L-17.40 1.11Q-17.40 2.79-17.54 4.37L-17.54 4.37ZM-28.25-6.71L-28.25-6.71Q-31.08-6.71-32.88-4.79Q-34.68-2.87-35.06 0.87L-35.06 0.87L-21.38 0.87Q-21.38-2.78-23.21-4.75Q-25.03-6.71-28.25-6.71ZM8.57 4.37L-8.90 4.37Q-8.47 7.88-6.46 9.85Q-4.44 11.81-1.13 11.81L-1.13 11.81Q1.03 11.81 2.76 11.36Q4.49 10.90 6.07 10.18L6.07 10.18L7.08 13.88Q5.35 14.69 3.19 15.17Q1.03 15.65-1.66 15.65L-1.66 15.65Q-4.34 15.65-6.50 14.77Q-8.66 13.88-10.18 12.22Q-11.69 10.57-12.50 8.14Q-13.32 5.72-13.32 2.60L-13.32 2.60Q-13.32-0.19-12.50-2.59Q-11.69-4.99-10.20-6.74Q-8.71-8.49-6.65-9.47Q-4.58-10.46-2.04-10.46L-2.04-10.46Q0.65-10.46 2.66-9.55Q4.68-8.63 6.02-7.05Q7.37-5.47 8.04-3.35Q8.71-1.24 8.71 1.11L8.71 1.11Q8.71 2.79 8.57 4.37L8.57 4.37ZM-2.14-6.71L-2.14-6.71Q-4.97-6.71-6.77-4.79Q-8.57-2.87-8.95 0.87L-8.95 0.87L4.73 0.87Q4.73-2.78 2.90-4.75Q1.08-6.71-2.14-6.71ZM26.47 12.25L28.78 8.41Q30.50 9.85 32.66 10.76Q34.82 11.67 37.70 11.67L37.70 11.67Q41.16 11.67 43.18 10.23Q45.19 8.79 45.19 6.34L45.19 6.34Q45.19 5.33 44.90 4.47Q44.62 3.61 43.78 2.81Q42.94 2.02 41.42 1.23Q39.91 0.44 37.51-0.47L37.51-0.47Q34.92-1.48 33.12-2.47Q31.32-3.45 30.22-4.63Q29.11-5.80 28.63-7.22Q28.15-8.63 28.15-10.46L28.15-10.46Q28.15-12.23 28.90-13.82Q29.64-15.40 31.10-16.58Q32.57-17.75 34.70-18.43Q36.84-19.10 39.58-19.10L39.58-19.10Q42.55-19.10 44.90-18.50Q47.26-17.90 49.56-16.79L49.56-16.79L47.88-12.91Q46.25-13.87 44.06-14.51Q41.88-15.16 39.48-15.16L39.48-15.16Q36.31-15.16 34.49-13.94Q32.66-12.71 32.66-10.70L32.66-10.70Q32.66-9.74 32.93-8.99Q33.19-8.25 33.98-7.55Q34.78-6.86 36.19-6.14Q37.61-5.42 39.96-4.55L39.96-4.55Q42.74-3.50 44.66-2.39Q46.58-1.29 47.74-0.04Q48.89 1.21 49.39 2.65Q49.90 4.09 49.90 5.81L49.90 5.81Q49.90 8.17 48.98 9.99Q48.07 11.81 46.46 13.09Q44.86 14.36 42.60 15.01Q40.34 15.65 37.70 15.65L37.70 15.65Q34.20 15.65 31.32 14.72Q28.44 13.78 26.47 12.25L26.47 12.25ZM74.66 2.60L74.66 2.60Q74.66 0.73 74.06-0.95Q73.46-2.63 72.38-3.88Q71.30-5.13 69.84-5.87Q68.38-6.62 66.65-6.62L66.65-6.62Q62.86-6.62 60.74-4.12Q58.63-1.63 58.63 2.50L58.63 2.50Q58.63 4.37 59.23 6.08Q59.83 7.78 60.91 9.05Q61.99 10.33 63.46 11.07Q64.92 11.81 66.65 11.81L66.65 11.81Q68.52 11.81 70.01 11.14Q71.50 10.47 72.53 9.25Q73.56 8.02 74.11 6.34Q74.66 4.66 74.66 2.60ZM54.22 2.60L54.22 2.60Q54.22-0.43 55.18-2.85Q56.14-5.27 57.79-6.95Q59.45-8.63 61.73-9.55Q64.01-10.46 66.65-10.46L66.65-10.46Q69.24-10.46 71.52-9.55Q73.80-8.63 75.48-6.95Q77.16-5.27 78.12-2.87Q79.08-0.47 79.08 2.50L79.08 2.50Q79.08 5.48 78.14 7.90Q77.21 10.33 75.53 12.05Q73.85 13.78 71.57 14.72Q69.29 15.65 66.65 15.65L66.65 15.65Q63.96 15.65 61.68 14.69Q59.40 13.73 57.74 12.01Q56.09 10.28 55.15 7.88Q54.22 5.48 54.22 2.60ZM88.92-20.44L88.92 6.82Q88.92 9.41 90.00 10.66Q91.08 11.91 93.00 11.91L93.00 11.91Q93.91 11.91 94.78 11.69Q95.64 11.48 96.31 11.19L96.31 11.19L97.37 14.69Q96.50 15.08 95.23 15.37Q93.96 15.65 92.42 15.65L92.42 15.65Q90.74 15.65 89.33 15.17Q87.91 14.69 86.86 13.69Q85.80 12.68 85.20 11.09Q84.60 9.51 84.60 7.25L84.60 7.25L84.60-20.44L88.92-20.44ZM123.96 11.96L123.05 15.32Q120.74 15.32 119.40 14.41Q118.06 13.49 117.53 11.77L117.53 11.77Q115.85 13.49 113.66 14.57Q111.48 15.65 108.89 15.65L108.89 15.65Q107.26 15.65 105.74 15.15Q104.23 14.65 103.06 13.54Q101.88 12.44 101.18 10.66Q100.49 8.89 100.49 6.34L100.49 6.34L100.49-9.88L104.81-9.88L104.81 5.77Q104.81 8.69 106.03 10.25Q107.26 11.81 109.70 11.81L109.70 11.81Q111.72 11.81 113.54 11.02Q115.37 10.23 116.81 8.89L116.81 8.89L116.81-9.88L121.13-9.88L121.13 8.60Q121.13 9.65 121.37 10.30Q121.61 10.95 121.99 11.31Q122.38 11.67 122.90 11.81Q123.43 11.96 123.96 11.96L123.96 11.96ZM130.78-8.97L131.69-16.84L135.00-16.84L135.00-8.97L141.91-8.97L141.91-5.23L135.00-5.23L135.00 6.82Q135.00 8.21 135.31 9.17Q135.62 10.13 136.15 10.71Q136.68 11.29 137.42 11.55Q138.17 11.81 138.98 11.81L138.98 11.81Q140.18 11.81 141.24 11.43Q142.30 11.05 143.26 10.52L143.26 10.52L144.46 13.97Q143.50 14.55 141.86 15.10Q140.23 15.65 138.46 15.65L138.46 15.65Q134.86 15.65 132.77 13.30Q130.68 10.95 130.68 6.49L130.68 6.49L130.68-5.23L126.36-5.23L126.36-8.97L130.78-8.97ZM153.10-9.88L153.10 15.08L148.78 15.08L148.78-9.88L153.10-9.88ZM150.94-14.15L150.94-14.15Q149.69-14.15 148.80-15.04Q147.91-15.93 147.91-17.18L147.91-17.18Q147.91-18.57 148.73-19.39Q149.54-20.20 150.94-20.20L150.94-20.20Q152.18-20.20 153.07-19.31Q153.96-18.43 153.96-17.18L153.96-17.18Q153.96-15.79 153.14-14.97Q152.33-14.15 150.94-14.15ZM179.30 2.60L179.30 2.60Q179.30 0.73 178.70-0.95Q178.10-2.63 177.02-3.88Q175.94-5.13 174.48-5.87Q173.02-6.62 171.29-6.62L171.29-6.62Q167.50-6.62 165.38-4.12Q163.27-1.63 163.27 2.50L163.27 2.50Q163.27 4.37 163.87 6.08Q164.47 7.78 165.55 9.05Q166.63 10.33 168.10 11.07Q169.56 11.81 171.29 11.81L171.29 11.81Q173.16 11.81 174.65 11.14Q176.14 10.47 177.17 9.25Q178.20 8.02 178.75 6.34Q179.30 4.66 179.30 2.60ZM158.86 2.60L158.86 2.60Q158.86-0.43 159.82-2.85Q160.78-5.27 162.43-6.95Q164.09-8.63 166.37-9.55Q168.65-10.46 171.29-10.46L171.29-10.46Q173.88-10.46 176.16-9.55Q178.44-8.63 180.12-6.95Q181.80-5.27 182.76-2.87Q183.72-0.47 183.72 2.50L183.72 2.50Q183.72 5.48 182.78 7.90Q181.85 10.33 180.17 12.05Q178.49 13.78 176.21 14.72Q173.93 15.65 171.29 15.65L171.29 15.65Q168.60 15.65 166.32 14.69Q164.04 13.73 162.38 12.01Q160.73 10.28 159.79 7.88Q158.86 5.48 158.86 2.60ZM193.66-9.88L193.66-5.71Q195.00-7.72 197.09-9.09Q199.18-10.46 202.06-10.46L202.06-10.46Q206.28-10.46 208.37-7.91Q210.46-5.37 210.46-1.19L210.46-1.19L210.46 15.08L206.14 15.08L206.14-0.71Q206.14-3.45 204.89-5.06Q203.64-6.67 201.34-6.67L201.34-6.67Q200.23-6.67 199.18-6.26Q198.12-5.85 197.14-5.13Q196.15-4.41 195.31-3.45Q194.47-2.49 193.80-1.43L193.80-1.43L193.80 15.08L189.48 15.08L189.48-9.88L193.66-9.88ZM215.74 13.06L217.56 9.46Q218.81 10.57 220.70 11.24Q222.60 11.91 224.76 11.91L224.76 11.91Q227.45 11.91 228.82 11.02Q230.18 10.13 230.18 8.74L230.18 8.74Q230.18 8.02 229.92 7.40Q229.66 6.77 228.96 6.20Q228.26 5.62 227.06 5.07Q225.86 4.52 223.94 3.85L223.94 3.85Q220.39 2.65 218.66 0.99Q216.94-0.67 216.94-3.59L216.94-3.59Q216.94-5.03 217.58-6.28Q218.23-7.53 219.46-8.47Q220.68-9.40 222.43-9.93Q224.18-10.46 226.44-10.46L226.44-10.46Q228.89-10.46 230.74-9.95Q232.58-9.45 234.07-8.68L234.07-8.68L232.87-5.13Q231.58-5.90 229.92-6.38Q228.26-6.86 226.25-6.86L226.25-6.86Q223.75-6.86 222.46-5.85Q221.16-4.84 221.16-3.64L221.16-3.64Q221.16-3.07 221.38-2.59Q221.59-2.11 222.17-1.67Q222.74-1.24 223.70-0.81Q224.66-0.38 226.10 0.10L226.10 0.10Q228.46 0.92 230.09 1.76Q231.72 2.60 232.73 3.61Q233.74 4.61 234.17 5.79Q234.60 6.97 234.60 8.41L234.60 8.41Q234.60 10.09 233.88 11.43Q233.16 12.77 231.86 13.71Q230.57 14.65 228.72 15.15Q226.87 15.65 224.62 15.65L224.62 15.65Q221.74 15.65 219.48 14.93Q217.22 14.21 215.74 13.06L215.74 13.06Z"/></g>
</svg>