<?xml version="1.0" encoding="UTF-8" standalone="no"?>
<!DOCTYPE svg PUBLIC "-//W3C//DTD SVG 1.1//EN" "http://www.w3.org/Graphics/SVG/1.1/DTD/svg11.dtd">
<svg version="1.1" xmlns="http://www.w3.org/2000/svg" xmlns:xlink="http://www.w3.org/1999/xlink" preserveAspectRatio="xMidYMid meet" viewBox="189.5882170768011 201.82744194456208 154.35299955596642 158.21830968942473" width="150.35" height="154.22"><defs><path d="M261.64 207.88C256.69 210.38 217.08 230.39 212.13 232.89C209.53 234.2 207.64 236.68 207 239.62C205.78 245.24 196.01 290.18 194.79 295.8C194.22 298.41 194.68 301.16 196.07 303.41C196.24 303.68 196.42 303.95 196.61 304.2C200.04 308.71 227.46 344.74 230.88 349.24C232.68 351.61 235.41 352.98 238.29 352.98C243.78 352.98 287.75 352.97 293.25 352.97C296.13 352.97 298.85 351.6 300.65 349.24C304.08 344.73 331.48 308.69 334.91 304.19C336.71 301.82 337.38 298.73 336.74 295.79C335.52 290.17 325.73 245.23 324.51 239.61C323.86 236.66 321.98 234.19 319.38 232.88C314.43 230.38 274.81 210.38 269.86 207.88C268.43 207.16 266.85 206.82 265.27 206.91C264.01 206.98 262.78 207.31 261.64 207.88Z" id="a54CS3qZyk"></path><path d="M261.42 203.87C256.19 206.51 214.37 227.63 209.14 230.27C206.4 231.65 204.41 234.27 203.73 237.38C202.44 243.31 192.13 290.75 190.84 296.68C190.24 299.44 190.73 302.34 192.2 304.72C192.37 305 192.56 305.28 192.77 305.55C196.38 310.3 225.33 348.35 228.94 353.1C230.84 355.6 233.72 357.05 236.76 357.05C242.56 357.04 288.98 357.03 294.78 357.03C297.82 357.03 300.7 355.59 302.59 353.1C306.21 348.34 335.14 310.29 338.76 305.53C340.66 303.04 341.37 299.78 340.69 296.67C339.4 290.74 329.07 243.29 327.78 237.36C327.1 234.26 325.11 231.64 322.37 230.26C317.14 227.62 275.32 206.5 270.09 203.87C268.58 203.1 266.92 202.75 265.24 202.84C263.92 202.91 262.62 203.27 261.42 203.87ZM269.86 207.88C274.81 210.38 314.43 230.38 319.38 232.88C321.98 234.19 323.86 236.67 324.5 239.61C325.73 245.23 335.52 290.17 336.74 295.79C337.38 298.73 336.71 301.83 334.91 304.19C331.48 308.69 304.08 344.74 300.65 349.24C298.85 351.6 296.13 352.97 293.25 352.97C287.75 352.97 243.78 352.98 238.29 352.98C235.4 352.98 232.68 351.61 230.88 349.25C227.46 344.74 200.04 308.71 196.61 304.2C196.42 303.95 196.24 303.69 196.07 303.41C194.68 301.16 194.22 298.42 194.79 295.8C196.01 290.18 205.78 245.24 207 239.63C207.64 236.68 209.53 234.2 212.12 232.89C217.08 230.39 256.69 210.38 261.64 207.88C262.78 207.31 264.01 206.98 265.27 206.91C266.85 206.83 268.43 207.16 269.86 207.88Z" id="cOah3q5b6"></path><path d="M236.84 248.27C232.55 248.27 229.07 251.45 229.07 255.37C229.07 260.67 229.07 303.02 229.07 308.31C229.07 312.23 232.55 315.41 236.84 315.41C242.64 315.41 289.01 315.41 294.8 315.41C299.09 315.41 302.58 312.23 302.58 308.31C302.58 303.01 302.58 260.67 302.58 255.37C302.57 251.45 299.09 248.27 294.8 248.27C283.21 248.27 242.64 248.27 236.84 248.27ZM291.61 258.68L291.61 277.62L270.86 277.62L270.86 258.68L291.61 258.68ZM238.16 295.83C238.16 289.92 243.42 285.09 249.91 285.09C256.38 285.09 261.66 289.9 261.66 295.83C261.66 301.74 256.41 306.57 249.91 306.57C243.44 306.57 238.16 301.76 238.16 295.83ZM258.39 279.84L249.89 275.76L241.4 279.84L243.02 271.19L236.15 265.08L245.66 263.82L249.91 255.96L254.16 263.82L263.67 265.08L256.78 271.19L258.39 279.84ZM281.23 285.22L294.5 306.2L267.97 306.2L281.23 285.22Z" id="eMgHwYcRe"></path></defs><g><g><use xlink:href="#a54CS3qZyk" opacity="1" fill="#326ce5" fill-opacity="1"></use><g><use xlink:href="#a54CS3qZyk" opacity="1" fill-opacity="0" stroke="#000000" stroke-width="0" stroke-opacity="0"></use></g></g><g><use xlink:href="#cOah3q5b6" opacity="1" fill="#ffffff" fill-opacity="1"></use><g><use xlink:href="#cOah3q5b6" opacity="1" fill-opacity="0" stroke="#000000" stroke-width="0" stroke-opacity="0"></use></g></g><g><use xlink:href="#eMgHwYcRe" opacity="1" fill="#ffffff" fill-opacity="1"></use><g><use xlink:href="#eMgHwYcRe" opacity="1" fill-opacity="0" stroke="#000000" stroke-width="1" stroke-opacity="0"></use></g></g></g></svg>