<?xml version="1.0" encoding="UTF-8" standalone="no"?>
<!DOCTYPE svg PUBLIC "-//W3C//DTD SVG 1.1//EN" "http://www.w3.org/Graphics/SVG/1.1/DTD/svg11.dtd">
<svg version="1.1" xmlns="http://www.w3.org/2000/svg" xmlns:xlink="http://www.w3.org/1999/xlink" preserveAspectRatio="xMidYMid meet" viewBox="183.70586413562472 188.42025660797188 212.00005837949612 220.57125086589522" width="208" height="216.57"><defs><path d="M283 196.52C276.15 200.03 221.35 228.12 214.5 231.64C210.91 233.48 208.3 236.96 207.41 241.09C205.72 248.98 192.2 312.09 190.51 319.98C189.73 323.65 190.37 327.51 192.29 330.67C192.52 331.05 192.77 331.42 193.04 331.78C197.78 338.11 235.71 388.71 240.45 395.04C242.94 398.35 246.71 400.28 250.69 400.28C258.3 400.28 319.12 400.27 326.73 400.26C330.71 400.27 334.48 398.34 336.97 395.03C341.71 388.7 379.62 338.09 384.36 331.76C386.85 328.44 387.78 324.1 386.9 319.96C385.2 312.07 371.66 248.96 369.97 241.07C369.08 236.94 366.47 233.46 362.88 231.62C356.03 228.11 301.22 200.03 294.37 196.52C292.4 195.5 290.21 195.03 288.02 195.15C286.28 195.25 284.57 195.71 283 196.52Z" id="b1efXOTF8"></path><path d="M282.69 190.89C275.46 194.59 217.61 224.25 210.37 227.95C206.58 229.9 203.83 233.57 202.89 237.94C201.11 246.27 186.84 312.89 185.06 321.22C184.22 325.1 184.9 329.17 186.93 332.51C187.17 332.91 187.44 333.3 187.72 333.67C192.72 340.35 232.76 393.78 237.77 400.45C240.39 403.95 244.37 405.99 248.58 405.99C256.61 405.99 320.82 405.97 328.84 405.97C333.05 405.98 337.03 403.94 339.66 400.45C344.66 393.77 384.68 340.33 389.69 333.65C392.31 330.15 393.29 325.57 392.36 321.21C390.57 312.88 376.28 246.25 374.5 237.92C373.56 233.56 370.8 229.89 367.02 227.94C359.78 224.24 301.93 194.58 294.7 190.88C292.61 189.81 290.3 189.31 287.98 189.44C286.15 189.54 284.35 190.04 282.69 190.89ZM294.37 196.52C301.22 200.03 356.03 228.11 362.88 231.62C366.47 233.46 369.08 236.94 369.97 241.08C371.66 248.97 385.2 312.08 386.89 319.97C387.78 324.1 386.85 328.45 384.36 331.76C379.62 338.09 341.71 388.7 336.97 395.03C334.48 398.34 330.71 400.27 326.72 400.27C319.12 400.27 258.29 400.28 250.69 400.29C246.7 400.29 242.94 398.36 240.45 395.04C235.71 388.71 197.78 338.11 193.04 331.78C192.77 331.43 192.52 331.06 192.29 330.67C190.37 327.51 189.72 323.66 190.51 319.99C192.2 312.1 205.72 248.98 207.41 241.1C208.3 236.96 210.91 233.48 214.5 231.64C221.35 228.13 276.15 200.03 283 196.52C284.57 195.71 286.28 195.25 288.02 195.16C290.21 195.04 292.39 195.51 294.37 196.52Z" id="h34002kyIP"></path><path d="M258.15 262.37C253.28 262.37 249.32 266.01 249.32 270.49C249.32 276.53 249.32 324.89 249.32 330.94C249.32 335.4 253.28 339.04 258.15 339.04C264.73 339.04 317.35 339.04 323.93 339.04C328.8 339.04 332.76 335.4 332.76 330.93C332.76 324.88 332.76 276.53 332.76 270.49C332.75 266.01 328.79 262.37 323.92 262.37C310.77 262.37 264.73 262.37 258.15 262.37ZM320.3 274.27L320.3 295.89L296.76 295.89L296.76 274.27L320.3 274.27ZM259.64 316.68C259.64 309.93 265.61 304.42 272.98 304.42C280.33 304.42 286.32 309.91 286.32 316.68C286.32 323.43 280.35 328.94 272.98 328.94C265.63 328.94 259.64 323.46 259.64 316.68ZM282.61 298.42L272.95 293.76L263.33 298.42L265.16 288.55L257.36 281.57L268.15 280.13L272.98 271.16L277.81 280.13L288.6 281.57L280.78 288.55L282.61 298.42ZM308.53 304.56L323.59 328.53L293.47 328.53L308.53 304.56Z" id="f5owyvUF6S"></path></defs><g><g><use xlink:href="#b1efXOTF8" opacity="1" fill="#326ce5" fill-opacity="1"></use><g><use xlink:href="#b1efXOTF8" opacity="1" fill-opacity="0" stroke="#000000" stroke-width="0" stroke-opacity="0"></use></g></g><g><use xlink:href="#h34002kyIP" opacity="1" fill="#ffffff" fill-opacity="1"></use><g><use xlink:href="#h34002kyIP" opacity="1" fill-opacity="0" stroke="#000000" stroke-width="0" stroke-opacity="0"></use></g></g><g><use xlink:href="#f5owyvUF6S" opacity="1" fill="#ffffff" fill-opacity="1"></use><g><use xlink:href="#f5owyvUF6S" opacity="1" fill-opacity="0" stroke="#000000" stroke-width="1" stroke-opacity="0"></use></g></g></g></svg>