<?xml version="1.0" encoding="UTF-8"?>
<svg xmlns="http://www.w3.org/2000/svg" xmlns:xlink="http://www.w3.org/1999/xlink" width="64px" height="64px" viewBox="0 0 64 64" version="1.1">
<g id="surface1">
<path style=" stroke:none;fill-rule:nonzero;fill:rgb(22.352941%,43.921569%,89.411765%);fill-opacity:1;" d="M 28.3125 0.964844 C 29.824219 0.214844 31.59375 0.214844 33.105469 0.964844 L 52.265625 10.425781 C 53.734375 11.152344 54.796875 12.503906 55.152344 14.105469 L 59.933594 35.59375 C 60.285156 37.167969 59.914062 38.816406 58.921875 40.09375 L 45.585938 57.246094 C 44.5625 58.5625 42.984375 59.335938 41.3125 59.335938 L 20.105469 59.335938 C 18.433594 59.335938 16.855469 58.5625 15.832031 57.246094 L 2.496094 40.09375 C 1.503906 38.816406 1.132812 37.167969 1.484375 35.59375 L 6.265625 14.105469 C 6.621094 12.503906 7.683594 11.152344 9.152344 10.425781 Z M 28.3125 0.964844 "/>
<path style=" stroke:none;fill-rule:nonzero;fill:rgb(100%,100%,100%);fill-opacity:1;" d="M 20.03125 17.519531 C 20.03125 17.519531 17.417969 17.808594 15.675781 18 C 15.519531 18.019531 15.378906 18.125 15.328125 18.285156 C 15.277344 18.445312 15.328125 18.609375 15.445312 18.714844 C 16.738281 19.898438 18.683594 21.667969 18.683594 21.667969 C 18.683594 21.667969 18.152344 24.242188 17.796875 25.957031 C 17.765625 26.113281 17.824219 26.277344 17.957031 26.378906 C 18.09375 26.476562 18.265625 26.476562 18.402344 26.402344 C 19.929688 25.535156 22.210938 24.230469 22.210938 24.230469 C 22.210938 24.230469 24.496094 25.535156 26.019531 26.402344 C 26.160156 26.476562 26.332031 26.476562 26.46875 26.378906 C 26.601562 26.277344 26.660156 26.113281 26.628906 25.960938 C 26.273438 24.242188 25.742188 21.667969 25.742188 21.667969 C 25.742188 21.667969 27.6875 19.898438 28.984375 18.71875 C 29.097656 18.609375 29.152344 18.445312 29.097656 18.285156 C 29.046875 18.125 28.910156 18.019531 28.753906 18.003906 C 27.007812 17.808594 24.394531 17.519531 24.394531 17.519531 C 24.394531 17.519531 23.3125 15.121094 22.589844 13.523438 C 22.523438 13.382812 22.378906 13.28125 22.210938 13.28125 C 22.046875 13.28125 21.902344 13.382812 21.839844 13.523438 C 21.117188 15.121094 20.03125 17.519531 20.03125 17.519531 Z M 20.03125 17.519531 "/>
<path style=" stroke:none;fill-rule:nonzero;fill:rgb(100%,100%,100%);fill-opacity:1;" d="M 35.113281 14.746094 L 46.824219 14.746094 L 46.824219 26.453125 L 35.113281 26.453125 Z M 35.113281 14.746094 "/>
<path style=" stroke:none;fill-rule:nonzero;fill:rgb(100%,100%,100%);fill-opacity:1;" d="M 29.121094 38.957031 C 29.121094 42.722656 26.066406 45.773438 22.304688 45.773438 C 18.539062 45.773438 15.488281 42.722656 15.488281 38.957031 C 15.488281 35.195312 18.539062 32.144531 22.304688 32.144531 C 26.066406 32.144531 29.121094 35.195312 29.121094 38.957031 Z M 29.121094 38.957031 "/>
<path style=" stroke:none;fill-rule:nonzero;fill:rgb(100%,100%,100%);fill-opacity:1;" d="M 46.363281 44.078125 L 34.386719 44.078125 C 34.226562 44.078125 34.074219 43.992188 33.992188 43.851562 C 33.910156 43.714844 33.90625 43.542969 33.984375 43.398438 L 39.972656 32.34375 C 40.050781 32.195312 40.207031 32.101562 40.375 32.101562 C 40.542969 32.101562 40.699219 32.195312 40.78125 32.34375 L 46.769531 43.398438 C 46.847656 43.542969 46.84375 43.714844 46.757812 43.851562 C 46.675781 43.992188 46.527344 44.078125 46.363281 44.078125 Z M 46.363281 44.078125 "/>
</g>
</svg>
